{"asset":{"version":"2.0","generator":"Blockbench 4.11.1 glTF exporter"},"scenes":[{"nodes":[12],"name":"blockbench_export"}],"scene":0,"nodes":[{"name":"cuboid","mesh":0},{"translation":[0,0.13749999999999996,0],"name":"cuboid","mesh":1},{"translation":[0,0.2187500000000001,0],"name":"cuboid","mesh":2},{"translation":[0,0.29999999999999993,0],"name":"cuboid","mesh":3},{"translation":[0,0.38124999999999976,0],"name":"cuboid","mesh":4},{"translation":[0,0.46250000000000013,0],"name":"cuboid","mesh":5},{"translation":[0,0.5437500000000001,0],"name":"cuboid","mesh":6},{"translation":[0,0.6249999999999998,0],"name":"cuboid","mesh":7},{"translation":[0,0.7062500000000003,0],"name":"cuboid","mesh":8},{"translation":[0,0.7875,0],"name":"cuboid","mesh":9},{"translation":[0,0.006249999999999978,0],"name":"elements","children":[1,2,3,4,5,6,7,8,9]},{"translation":[0,-0.5,0],"name":"root","children":[0,10]},{"children":[11]}],"bufferViews":[{"buffer":0,"byteOffset":0,"byteLength":1824,"target":34962,"byteStride":12},{"buffer":0,"byteOffset":1824,"byteLength":1824,"target":34962,"byteStride":12},{"buffer":0,"byteOffset":3648,"byteLength":1216,"target":34962,"byteStride":8},{"buffer":0,"byteOffset":4864,"byteLength":456,"target":34963},{"buffer":0,"byteOffset":5320,"byteLength":288,"target":34962,"byteStride":12},{"buffer":0,"byteOffset":5608,"byteLength":288,"target":34962,"byteStride":12},{"buffer":0,"byteOffset":5896,"byteLength":192,"target":34962,"byteStride":8},{"buffer":0,"byteOffset":6088,"byteLength":72,"target":34963},{"buffer":0,"byteOffset":6160,"byteLength":288,"target":34962,"byteStride":12},{"buffer":0,"byteOffset":6448,"byteLength":288,"target":34962,"byteStride":12},{"buffer":0,"byteOffset":6736,"byteLength":192,"target":34962,"byteStride":8},{"buffer":0,"byteOffset":6928,"byteLength":72,"target":34963},{"buffer":0,"byteOffset":7000,"byteLength":288,"target":34962,"byteStride":12},{"buffer":0,"byteOffset":7288,"byteLength":288,"target":34962,"byteStride":12},{"buffer":0,"byteOffset":7576,"byteLength":192,"target":34962,"byteStride":8},{"buffer":0,"byteOffset":7768,"byteLength":72,"target":34963},{"buffer":0,"byteOffset":7840,"byteLength":288,"target":34962,"byteStride":12},{"buffer":0,"byteOffset":8128,"byteLength":288,"target":34962,"byteStride":12},{"buffer":0,"byteOffset":8416,"byteLength":192,"target":34962,"byteStride":8},{"buffer":0,"byteOffset":8608,"byteLength":72,"target":34963},{"buffer":0,"byteOffset":8680,"byteLength":288,"target":34962,"byteStride":12},{"buffer":0,"byteOffset":8968,"byteLength":288,"target":34962,"byteStride":12},{"buffer":0,"byteOffset":9256,"byteLength":192,"target":34962,"byteStride":8},{"buffer":0,"byteOffset":9448,"byteLength":72,"target":34963},{"buffer":0,"byteOffset":9520,"byteLength":288,"target":34962,"byteStride":12},{"buffer":0,"byteOffset":9808,"byteLength":288,"target":34962,"byteStride":12},{"buffer":0,"byteOffset":10096,"byteLength":192,"target":34962,"byteStride":8},{"buffer":0,"byteOffset":10288,"byteLength":72,"target":34963},{"buffer":0,"byteOffset":10360,"byteLength":288,"target":34962,"byteStride":12},{"buffer":0,"byteOffset":10648,"byteLength":288,"target":34962,"byteStride":12},{"buffer":0,"byteOffset":10936,"byteLength":192,"target":34962,"byteStride":8},{"buffer":0,"byteOffset":11128,"byteLength":72,"target":34963},{"buffer":0,"byteOffset":11200,"byteLength":288,"target":34962,"byteStride":12},{"buffer":0,"byteOffset":11488,"byteLength":288,"target":34962,"byteStride":12},{"buffer":0,"byteOffset":11776,"byteLength":192,"target":34962,"byteStride":8},{"buffer":0,"byteOffset":11968,"byteLength":72,"target":34963},{"buffer":0,"byteOffset":12040,"byteLength":288,"target":34962,"byteStride":12},{"buffer":0,"byteOffset":12328,"byteLength":288,"target":34962,"byteStride":12},{"buffer":0,"byteOffset":12616,"byteLength":192,"target":34962,"byteStride":8},{"buffer":0,"byteOffset":12808,"byteLength":72,"target":34963}],"buffers":[{"byteLength":12880,"uri":"data:application/octet-stream;base64,"}],"accessors":[{"bufferView":0,"componentType":5126,"count":152,"max":[0.25,1,0.25],"min":[-0.25,0,-0.25],"type":"VEC3"},{"bufferView":1,"componentType":5126,"count":152,"max":[1,1,1],"min":[-1,-1,-1],"type":"VEC3"},{"bufferView":2,"componentType":5126,"count":152,"max":[0.953125,0.921875],"min":[0,0],"type":"VEC2"},{"bufferView":3,"componentType":5123,"count":228,"max":[151],"min":[0],"type":"SCALAR"},{"bufferView":4,"componentType":5126,"count":24,"max":[0.234375,0.0625,0.234375],"min":[-0.234375,0,-0.234375],"type":"VEC3"},{"bufferView":5,"componentType":5126,"count":24,"max":[1,1,1],"min":[-1,-1,-1],"type":"VEC3"},{"bufferView":6,"componentType":5126,"count":24,"max":[0.90625,0.65625],"min":[0,0.125],"type":"VEC2"},{"bufferView":7,"componentType":5123,"count":36,"max":[23],"min":[0],"type":"SCALAR"},{"bufferView":8,"componentType":5126,"count":24,"max":[0.234375,0.0625,0.234375],"min":[-0.234375,0,-0.234375],"type":"VEC3"},{"bufferView":9,"componentType":5126,"count":24,"max":[1,1,1],"min":[-1,-1,-1],"type":"VEC3"},{"bufferView":10,"componentType":5126,"count":24,"max":[0.90625,0.65625],"min":[0.140625,0.25],"type":"VEC2"},{"bufferView":11,"componentType":5123,"count":36,"max":[23],"min":[0],"type":"SCALAR"},{"bufferView":12,"componentType":5126,"count":24,"max":[0.234375,0.0625,0.234375],"min":[-0.234375,0,-0.234375],"type":"VEC3"},{"bufferView":13,"componentType":5126,"count":24,"max":[1,1,1],"min":[-1,-1,-1],"type":"VEC3"},{"bufferView":14,"componentType":5126,"count":24,"max":[0.90625,0.859375],"min":[0,0.375],"type":"VEC2"},{"bufferView":15,"componentType":5123,"count":36,"max":[23],"min":[0],"type":"SCALAR"},{"bufferView":16,"componentType":5126,"count":24,"max":[0.234375,0.0625,0.234375],"min":[-0.234375,0,-0.234375],"type":"VEC3"},{"bufferView":17,"componentType":5126,"count":24,"max":[1,1,1],"min":[-1,-1,-1],"type":"VEC3"},{"bufferView":18,"componentType":5126,"count":24,"max":[0.96875,0.859375],"min":[0.53125,0.140625],"type":"VEC2"},{"bufferView":19,"componentType":5123,"count":36,"max":[23],"min":[0],"type":"SCALAR"},{"bufferView":20,"componentType":5126,"count":24,"max":[0.234375,0.0625,0.234375],"min":[-0.234375,0,-0.234375],"type":"VEC3"},{"bufferView":21,"componentType":5126,"count":24,"max":[1,1,1],"min":[-1,-1,-1],"type":"VEC3"},{"bufferView":22,"componentType":5126,"count":24,"max":[0.96875,0.859375],"min":[0.140625,0],"type":"VEC2"},{"bufferView":23,"componentType":5123,"count":36,"max":[23],"min":[0],"type":"SCALAR"},{"bufferView":24,"componentType":5126,"count":24,"max":[0.234375,0.0625,0.234375],"min":[-0.234375,0,-0.234375],"type":"VEC3"},{"bufferView":25,"componentType":5126,"count":24,"max":[1,1,1],"min":[-1,-1,-1],"type":"VEC3"},{"bufferView":26,"componentType":5126,"count":24,"max":[0.96875,0.859375],"min":[0,0.59375],"type":"VEC2"},{"bufferView":27,"componentType":5123,"count":36,"max":[23],"min":[0],"type":"SCALAR"},{"bufferView":28,"componentType":5126,"count":24,"max":[0.234375,0.0625,0.234375],"min":[-0.234375,0,-0.234375],"type":"VEC3"},{"bufferView":29,"componentType":5126,"count":24,"max":[1,1,1],"min":[-1,-1,-1],"type":"VEC3"},{"bufferView":30,"componentType":5126,"count":24,"max":[0.96875,0.828125],"min":[0.5625,0.421875],"type":"VEC2"},{"bufferView":31,"componentType":5123,"count":36,"max":[23],"min":[0],"type":"SCALAR"},{"bufferView":32,"componentType":5126,"count":24,"max":[0.234375,0.0625,0.234375],"min":[-0.234375,0,-0.234375],"type":"VEC3"},{"bufferView":33,"componentType":5126,"count":24,"max":[1,1,1],"min":[-1,-1,-1],"type":"VEC3"},{"bufferView":34,"componentType":5126,"count":24,"max":[0.96875,0.890625],"min":[0,0.5625],"type":"VEC2"},{"bufferView":35,"componentType":5123,"count":36,"max":[23],"min":[0],"type":"SCALAR"},{"bufferView":36,"componentType":5126,"count":24,"max":[0.234375,0.0625,0.234375],"min":[-0.234375,0,-0.234375],"type":"VEC3"},{"bufferView":37,"componentType":5126,"count":24,"max":[1,1,1],"min":[-1,-1,-1],"type":"VEC3"},{"bufferView":38,"componentType":5126,"count":24,"max":[0.90625,0.5625],"min":[0.28125,0],"type":"VEC2"},{"bufferView":39,"componentType":5123,"count":36,"max":[23],"min":[0],"type":"SCALAR"}],"materials":[{"pbrMetallicRoughness":{"metallicFactor":0,"roughnessFactor":1,"baseColorTexture":{"index":0}},"alphaMode":"MASK","alphaCutoff":0.05,"doubleSided":true}],"textures":[{"sampler":0,"source":0,"name":"texture"}],"samplers":[{"magFilter":9728,"minFilter":9728,"wrapS":33071,"wrapT":33071}],"images":[{"mimeType":"image/png","uri":"data:image/png;base64,"}],"meshes":[{"primitives":[{"mode":4,"attributes":{"POSITION":0,"NORMAL":1,"TEXCOORD_0":2},"indices":3,"material":0}]},{"primitives":[{"mode":4,"attributes":{"POSITION":4,"NORMAL":5,"TEXCOORD_0":6},"indices":7,"material":0}]},{"primitives":[{"mode":4,"attributes":{"POSITION":8,"NORMAL":9,"TEXCOORD_0":10},"indices":11,"material":0}]},{"primitives":[{"mode":4,"attributes":{"POSITION":12,"NORMAL":13,"TEXCOORD_0":14},"indices":15,"material":0}]},{"primitives":[{"mode":4,"attributes":{"POSITION":16,"NORMAL":17,"TEXCOORD_0":18},"indices":19,"material":0}]},{"primitives":[{"mode":4,"attributes":{"POSITION":20,"NORMAL":21,"TEXCOORD_0":22},"indices":23,"material":0}]},{"primitives":[{"mode":4,"attributes":{"POSITION":24,"NORMAL":25,"TEXCOORD_0":26},"indices":27,"material":0}]},{"primitives":[{"mode":4,"attributes":{"POSITION":28,"NORMAL":29,"TEXCOORD_0":30},"indices":31,"material":0}]},{"primitives":[{"mode":4,"attributes":{"POSITION":32,"NORMAL":33,"TEXCOORD_0":34},"indices":35,"material":0}]},{"primitives":[{"mode":4,"attributes":{"POSITION":36,"NORMAL":37,"TEXCOORD_0":38},"indices":39,"material":0}]}]}